{
.appVersion = "3151";
.formatVersion = 3;
axes = (
{
name = Weight;
tag = wght;
}
);
date = "2021-09-22 01:39:39 +0000";
familyName = Quad;
fontMaster = (
{
axesValues = (
0
);
customParameters = (
{
name = "Master Icon Glyph Name";
value = A;
}
);
id = m01;
metricValues = (
{
over = 16;
pos = 800;
},
{
over = 16;
pos = 700;
},
{
over = 16;
pos = 500;
},
{
over = -16;
},
{
over = -16;
pos = -200;
},
{
over = -16;
}
);
name = Regular;
},
{
axesValues = (
600
);
customParameters = (
{
name = "Master Icon Glyph Name";
value = A;
}
);
id = m002;
metricValues = (
{
over = 16;
pos = 800;
},
{
over = 16;
pos = 700;
},
{
over = 16;
pos = 500;
},
{
over = -16;
},
{
over = -16;
pos = -200;
},
{
over = -16;
}
);
name = Bold;
}
);
glyphs = (
{
glyphname = A;
lastChange = "2024-02-23 08:32:22 +0000";
layers = (
{
layerId = m01;
shapes = (
{
closed = 1;
nodes = (
(164,538,l),
(426,538,l),
(426,800,l),
(164,800,l)
);
},
{
closed = 1;
nodes = (
(26,399,l),
(26,-3,l),
(164,-3,l),
(164,135,l),
(303,135,l),
(303,275,l),
(164,275,l),
(164,399,l)
);
},
{
closed = 1;
nodes = (
(426,-3,l),
(567,-3,l),
(567,399,l),
(426,399,l)
);
}
);
width = 600;
},
{
layerId = m002;
shapes = (
{
closed = 1;
nodes = (
(149,478,l),
(471,478,l),
(471,800,l),
(149,800,l)
);
},
{
closed = 1;
nodes = (
(26,445,l),
(26,-3,l),
(239,-2,l),
(239,122,l),
(360,122,l),
(360,334,l),
(239,334,l),
(239,445,l)
);
},
{
closed = 1;
nodes = (
(381,0,l),
(594,0,l),
(594,445,l),
(381,445,l)
);
}
);
width = 627;
}
);
unicode = 65;
},
{
glyphname = B;
lastChange = "2024-02-23 07:34:33 +0000";
layers = (
{
layerId = m01;
shapes = (
{
closed = 1;
nodes = (
(33,399,l),
(33,-1,l),
(570,-1,l),
(570,276,l),
(432,276,l),
(432,137,l),
(171,137,l),
(171,261,l),
(309,261,l),
(309,399,l)
);
},
{
closed = 1;
nodes = (
(33,536,l),
(309,536,l),
(309,798,l),
(33,798,l)
);
},
{
closed = 1;
nodes = (
(432,399,l),
(570,399,l),
(570,675,l),
(432,675,l)
);
}
);
width = 600;
},
{
layerId = m002;
shapes = (
{
closed = 1;
nodes = (
(33,445,l),
(33,0,l),
(600,0,l),
(600,336,l),
(389,336,l),
(389,212,l),
(245,212,l),
(245,233,l),
(368,233,l),
(368,445,l)
);
},
{
closed = 1;
nodes = (
(33,478,l),
(368,478,l),
(368,800,l),
(33,800,l)
);
},
{
closed = 1;
nodes = (
(389,356,l),
(600,356,l),
(600,690,l),
(389,690,l)
);
}
);
width = 630;
}
);
unicode = 66;
},
{
glyphname = C;
lastChange = "2024-02-23 07:35:03 +0000";
layers = (
{
layerId = m01;
shapes = (
{
closed = 1;
nodes = (
(31,400,l),
(31,129,l),
(296,129,l),
(296,0,l),
(567,0,l),
(567,135,l),
(300,135,l),
(300,400,l)
);
},
{
closed = 1;
nodes = (
(297,664,l),
(568,664,l),
(568,800,l),
(297,800,l)
);
}
);
width = 600;
},
{
layerId = m002;
shapes = (
{
closed = 1;
nodes = (
(31,445,l),
(31,115,l),
(266,115,l),
(266,0,l),
(597,0,l),
(597,209,l),
(360,209,l),
(360,445,l)
);
},
{
closed = 1;
nodes = (
(267,591,l),
(598,591,l),
(598,800,l),
(267,800,l)
);
}
);
width = 630;
}
);
unicode = 67;
},
{
glyphname = D;
lastChange = "2024-02-23 07:34:45 +0000";
layers = (
{
layerId = m01;
shapes = (
{
closed = 1;
nodes = (
(37,400,l),
(37,2,l),
(569,2,l),
(569,139,l),
(171,139,l),
(171,400,l)
);
},
{
closed = 1;
nodes = (
(34,800,l),
(34,665,l),
(301,665,l),
(301,402,l),
(569,402,l),
(569,670,l),
(303,670,l),
(303,800,l)
);
}
);
width = 600;
},
{
layerId = m002;
shapes = (
{
closed = 1;
nodes = (
(37,444,l),
(37,0,l),
(600,0,l),
(600,211,l),
(246,211,l),
(246,444,l)
);
},
{
closed = 1;
nodes = (
(34,801,l),
(34,591,l),
(272,591,l),
(272,357,l),
(600,357,l),
(600,685,l),
(363,685,l),
(363,801,l)
);
}
);
width = 631;
}
);
unicode = 68;
},
{
glyphname = E;
lastChange = "2024-02-23 07:38:23 +0000";
layers = (
{
layerId = m01;
shapes = (
{
closed = 1;
nodes = (
(30,267,l),
(295,267,l),
(295,533,l),
(30,533,l)
);
},
{
closed = 1;
nodes = (
(165,668,l),
(565,668,l),
(565,800,l),
(165,800,l)
);
},
{
closed = 1;
nodes = (
(165,-1,l),
(165,129,l),
(565,129,l),
(566,87,o),
(566,44,o),
(565,-1,c)
);
}
);
width = 600;
},
{
layerId = m002;
shapes = (
{
closed = 1;
nodes = (
(30,253,l),
(355,253,l),
(355,563,l),
(30,563,l)
);
},
{
closed = 1;
nodes = (
(165,594,l),
(611,594,l),
(611,800,l),
(165,800,l)
);
},
{
closed = 1;
nodes = (
(165,-1,l),
(165,204,l),
(611,204,l),
(612,162,o),
(612,44,o),
(611,-1,c)
);
}
);
width = 646;
}
);
unicode = 69;
},
{
glyphname = F;
lastChange = "2024-02-23 08:33:31 +0000";
layers = (
{
layerId = m01;
shapes = (
{
closed = 1;
nodes = (
(27,267,l),
(293,267,l),
(293,534,l),
(27,534,l)
);
},
{
closed = 1;
nodes = (
(27,1,l),
(293,1,l),
(293,126,l),
(27,126,l)
);
},
{
closed = 1;
nodes = (
(434,408,l),
(575,408,l),
(575,534,l),
(434,534,l)
);
},
{
closed = 1;
nodes = (
(309,675,l),
(575,675,l),
(575,800,l),
(309,800,l)
);
}
);
width = 600;
},
{
layerId = m002;
shapes = (
{
closed = 1;
nodes = (
(27,237,l),
(352,237,l),
(352,563,l),
(27,563,l)
);
},
{
closed = 1;
nodes = (
(27,1,l),
(352,0,l),
(352,200,l),
(27,200,l)
);
},
{
closed = 1;
nodes = (
(389,362,l),
(603,362,l),
(603,563,l),
(389,563,l)
);
},
{
closed = 1;
nodes = (
(278,600,l),
(603,600,l),
(603,800,l),
(278,800,l)
);
}
);
width = 628;
}
);
unicode = 70;
},
{
glyphname = G;
lastChange = "2024-02-23 07:39:18 +0000";
layers = (
{
layerId = m01;
shapes = (
{
closed = 1;
nodes = (
(303,400,l),
(303,138,l),
(165,138,l),
(165,260,l),
(41,260,l),
(41,-2,l),
(303,-2,l),
(303,121,l),
(442,121,l),
(442,-2,l),
(565,-2,l),
(565,400,l)
);
},
{
closed = 1;
nodes = (
(41,661,l),
(442,661,l),
(442,800,l),
(41,800,l)
);
}
);
width = 600;
},
{
layerId = m002;
shapes = (
{
closed = 1;
nodes = (
(273,445,l),
(273,213,l),
(239,213,l),
(239,321,l),
(41,321,l),
(41,0,l),
(362,0,l),
(362,109,l),
(396,109,l),
(396,0,l),
(594,0,l),
(594,445,l)
);
},
{
closed = 1;
nodes = (
(41,588,l),
(485,588,l),
(485,800,l),
(41,800,l)
);
}
);
width = 629;
}
);
unicode = 71;
},
{
glyphname = H;
lastChange = "2024-02-23 07:44:13 +0000";
layers = (
{
layerId = m01;
shapes = (
{
closed = 1;
nodes = (
(294,799,l),
(294,528,l),
(39,528,l),
(39,1,l),
(174,1,l),
(174,407,l),
(294,407,l),
(294,528,l),
(566,528,l),
(566,799,l)
);
},
{
closed = 1;
nodes = (
(430,1,l),
(566,1,l),
(566,407,l),
(430,407,l)
);
},
{
closed = 1;
nodes = (
(39,663,l),
(160,663,l),
(160,799,l),
(39,799,l)
);
}
);
width = 600;
},
{
layerId = m002;
shapes = (
{
closed = 1;
nodes = (
(268,800,l),
(268,558,l),
(41,558,l),
(39,2,l),
(250,0,l),
(250,361,l),
(357,361,l),
(357,469,l),
(598,469,l),
(598,800,l)
);
},
{
closed = 1;
nodes = (
(388,0,l),
(598,0,l),
(598,450,l),
(388,450,l)
);
},
{
closed = 1;
nodes = (
(41,589,l),
(237,589,l),
(237,800,l),
(41,800,l)
);
}
);
width = 632;
}
);
unicode = 72;
},
{
glyphname = I;
lastChange = "2024-02-23 07:45:20 +0000";
layers = (
{
layerId = m01;
shapes = (
{
closed = 1;
nodes = (
(299,402,l),
(299,138,l),
(33,138,l),
(33,4,l),
(566,4,l),
(566,139,l),
(434,139,l),
(434,402,l)
);
},
{
closed = 1;
nodes = (
(168,533,l),
(433,533,l),
(433,799,l),
(168,799,l)
);
}
);
width = 600;
},
{
layerId = m002;
shapes = (
{
closed = 1;
nodes = (
(271,446,l),
(271,209,l),
(33,209,l),
(33,0,l),
(599,4,l),
(600,210,l),
(482,210,l),
(482,446,l)
);
},
{
closed = 1;
nodes = (
(154,474,l),
(481,474,l),
(481,801,l),
(154,801,l)
);
}
);
width = 634;
}
);
unicode = 73;
},
{
glyphname = J;
lastChange = "2024-02-23 07:47:06 +0000";
layers = (
{
layerId = m01;
shapes = (
{
closed = 1;
nodes = (
(299,398,l),
(299,137,l),
(35,137,l),
(35,1,l),
(433,1,l),
(433,398,l)
);
},
{
closed = 1;
nodes = (
(300,530,l),
(566,530,l),
(566,794,l),
(300,794,l)
);
},
{
closed = 1;
nodes = (
(35,662,l),
(169,662,l),
(169,795,l),
(35,795,l)
);
}
);
width = 600;
},
{
layerId = m002;
shapes = (
{
closed = 1;
nodes = (
(272,446,l),
(272,212,l),
(35,212,l),
(35,1,l),
(482,0,l),
(482,446,l)
);
},
{
closed = 1;
nodes = (
(273,474,l),
(601,474,l),
(600,801,l),
(273,801,l)
);
},
{
closed = 1;
nodes = (
(35,593,l),
(245,593,l),
(245,802,l),
(35,802,l)
);
}
);
width = 635;
}
);
unicode = 74;
},
{
glyphname = K;
lastChange = "2024-02-23 07:51:08 +0000";
layers = (
{
layerId = m01;
shapes = (
{
closed = 1;
nodes = (
(300,0,l),
(567,0,l),
(567,266,l),
(300,266,l)
);
},
{
closed = 1;
nodes = (
(300,530,l),
(300,662,l),
(432,662,l),
(432,399,l),
(164,399,l),
(164,528,l),
(165,529,o),
(166,530,o),
(168,530,c)
);
},
{
closed = 1;
nodes = (
(33,528,l),
(33,798,l),
(168,798,l),
(168,530,l),
(166,530,o),
(165,529,o),
(164,528,c)
);
},
{
closed = 1;
nodes = (
(33,1,l),
(169,1,l),
(169,264,l),
(33,264,l)
);
}
);
width = 600;
},
{
layerId = m002;
shapes = (
{
closed = 1;
nodes = (
(271,0,l),
(597,0,l),
(597,326,l),
(271,326,l)
);
},
{
closed = 1;
nodes = (
(271,561,l),
(271,678,l),
(477,678,l),
(477,355,l),
(150,355,l),
(150,470,l),
(151,471,o),
(240,561,o),
(242,561,c)
);
},
{
closed = 1;
nodes = (
(33,470,l),
(33,798,l),
(242,799,l),
(242,561,l),
(240,561,o),
(151,471,o),
(150,470,c)
);
},
{
closed = 1;
nodes = (
(33,1,l),
(243,1,l),
(243,324,l),
(33,324,l)
);
}
);
width = 630;
}
);
unicode = 75;
},
{
glyphname = L;
lastChange = "2024-02-23 07:51:37 +0000";
layers = (
{
layerId = m01;
shapes = (
{
closed = 1;
nodes = (
(35,1,l),
(301,1,l),
(301,265,l),
(35,265,l)
);
},
{
closed = 1;
nodes = (
(35,402,l),
(168,402,l),
(168,801,l),
(35,801,l)
);
},
{
closed = 1;
nodes = (
(438,0,l),
(569,0,l),
(569,133,l),
(438,133,l)
);
}
);
width = 600;
},
{
layerId = m002;
shapes = (
{
closed = 1;
nodes = (
(35,1,l),
(361,1,l),
(361,325,l),
(35,325,l)
);
},
{
closed = 1;
nodes = (
(35,358,l),
(243,358,l),
(243,803,l),
(35,803,l)
);
},
{
closed = 1;
nodes = (
(394,0,l),
(600,0,l),
(600,208,l),
(394,208,l)
);
}
);
width = 631;
}
);
unicode = 76;
},
{
glyphname = M;
lastChange = "2024-02-23 07:52:44 +0000";
layers = (
{
layerId = m01;
shapes = (
{
closed = 1;
nodes = (
(33,797,l),
(33,664,l),
(167,664,l),
(167,534,l),
(430,534,l),
(430,665,l),
(561,665,l),
(561,797,l)
);
},
{
closed = 1;
nodes = (
(31,0,l),
(162,0,l),
(162,395,l),
(31,395,l)
);
},
{
closed = 1;
nodes = (
(433,1,l),
(561,1,l),
(561,395,l),
(433,395,l)
);
}
);
width = 600;
},
{
layerId = m002;
shapes = (
{
closed = 1;
nodes = (
(33,797,l),
(33,593,l),
(153,593,l),
(153,477,l),
(477,477,l),
(477,594,l),
(594,594,l),
(594,800,l)
);
},
{
closed = 1;
nodes = (
(31,0,l),
(237,0,l),
(237,442,l),
(31,442,l)
);
},
{
closed = 1;
nodes = (
(390,0,l),
(594,1,l),
(594,442,l),
(390,442,l)
);
}
);
width = 633;
}
);
unicode = 77;
},
{
glyphname = N;
lastChange = "2024-02-23 07:54:42 +0000";
layers = (
{
layerId = m01;
shapes = (
{
closed = 1;
nodes = (
(303,531,l),
(303,132,l),
(436,132,l),
(436,0,l),
(567,0,l),
(567,399,l),
(434,399,l),
(434,531,l)
);
},
{
closed = 1;
nodes = (
(36,798,l),
(36,534,l),
(169,534,l),
(169,666,l),
(300,666,l),
(300,798,l)
);
},
{
closed = 1;
nodes = (
(36,1,l),
(167,1,l),
(167,264,l),
(36,264,l)
);
}
);
width = 600;
},
{
layerId = m002;
shapes = (
{
closed = 1;
nodes = (
(279,557,l),
(279,120,l),
(401,120,l),
(401,0,l),
(593,0,l),
(593,437,l),
(472,437,l),
(472,557,l)
);
},
{
closed = 1;
nodes = (
(36,798,l),
(36,487,l),
(230,487,l),
(230,607,l),
(350,607,l),
(350,800,l)
);
},
{
closed = 1;
nodes = (
(36,1,l),
(230,1,l),
(228,314,l),
(36,314,l)
);
}
);
width = 626;
}
);
unicode = 78;
},
{
glyphname = O;
lastChange = "2024-02-23 08:34:32 +0000";
layers = (
{
layerId = m01;
shapes = (
{
closed = 1;
nodes = (
(26,0,l),
(304,0,l),
(304,262,l),
(26,262,l)
);
},
{
closed = 1;
nodes = (
(26,663,l),
(304,663,l),
(304,800,l),
(26,800,l)
);
},
{
closed = 1;
nodes = (
(443,0,l),
(565,0,l),
(565,262,l),
(443,262,l)
);
},
{
closed = 1;
nodes = (
(443,663,l),
(565,663,l),
(565,800,l),
(443,800,l)
);
}
);
width = 600;
},
{
layerId = m002;
shapes = (
{
closed = 1;
nodes = (
(26,0,l),
(362,0,l),
(362,322,l),
(26,322,l)
);
},
{
closed = 1;
nodes = (
(26,590,l),
(362,590,l),
(362,801,l),
(26,800,l)
);
},
{
closed = 1;
nodes = (
(397,0,l),
(594,0,l),
(594,322,l),
(397,322,l)
);
},
{
closed = 1;
nodes = (
(397,590,l),
(594,590,l),
(594,800,l),
(397,801,l)
);
}
);
width = 629;
}
);
unicode = 79;
},
{
glyphname = P;
lastChange = "2024-02-23 08:35:18 +0000";
layers = (
{
layerId = m01;
shapes = (
{
closed = 1;
nodes = (
(311,538,l),
(572,538,l),
(572,799,l),
(311,799,l)
);
},
{
closed = 1;
nodes = (
(34,261,l),
(311,261,l),
(311,399,l),
(34,399,l)
);
},
{
closed = 1;
nodes = (
(34,0,l),
(311,0,l),
(311,138,l),
(34,138,l)
);
},
{
closed = 1;
nodes = (
(34,661,l),
(172,661,l),
(172,799,l),
(34,799,l)
);
}
);
width = 600;
},
{
layerId = m002;
shapes = (
{
closed = 1;
nodes = (
(281,480,l),
(602,480,l),
(602,799,l),
(281,801,l)
);
},
{
closed = 1;
nodes = (
(34,233,l),
(370,233,l),
(370,445,l),
(34,445,l)
);
},
{
closed = 1;
nodes = (
(34,0,l),
(370,0,l),
(370,212,l),
(34,212,l)
);
},
{
closed = 1;
nodes = (
(34,589,l),
(246,589,l),
(246,801,l),
(34,799,l)
);
}
);
width = 630;
}
);
unicode = 80;
},
{
glyphname = Q;
lastChange = "2024-02-23 07:57:00 +0000";
layers = (
{
layerId = m01;
shapes = (
{
closed = 1;
nodes = (
(293,385,l),
(293,246,l),
(17,246,l),
(17,101,l),
(439,101,l),
(439,-35,l),
(577,-35,l),
(577,385,l)
);
},
{
closed = 1;
nodes = (
(297,802,l),
(297,659,l),
(434,659,l),
(434,522,l),
(577,522,l),
(577,802,l)
);
},
{
closed = 1;
nodes = (
(17,522,l),
(159,522,l),
(159,802,l),
(17,802,l)
);
}
);
width = 597;
},
{
layerId = m002;
shapes = (
{
closed = 1;
nodes = (
(265,426,l),
(265,302,l),
(17,302,l),
(17,82,l),
(395,82,l),
(395,-40,l),
(609,-40,l),
(609,426,l)
);
},
{
closed = 1;
nodes = (
(268,800,l),
(268,582,l),
(391,582,l),
(391,460,l),
(609,460,l),
(609,800,l)
);
},
{
closed = 1;
nodes = (
(17,460,l),
(235,460,l),
(235,800,l),
(17,800,l)
);
}
);
width = 629;
}
);
unicode = 81;
},
{
glyphname = R;
lastChange = "2024-02-23 08:36:46 +0000";
layers = (
{
layerId = m01;
shapes = (
{
closed = 1;
nodes = (
(562,-3,l),
(562,537,l),
(500,537,o),
(423,537,o),
(345,537,c),
(330,537,o),
(314,537,o),
(299,537,c),
(299,537,l),
(299,398,l),
(423,398,l),
(423,-3,l)
);
},
{
closed = 1;
nodes = (
(160,136,l),
(160,398,l),
(21,398,l),
(21,136,l)
);
},
{
closed = 1;
nodes = (
(299,537,l),
(299,537,l),
(299,537,l)
);
},
{
closed = 1;
nodes = (
(299,537,l),
(299,661,l),
(423,661,l),
(423,800,l),
(21,800,l),
(21,537,l)
);
}
);
width = 600;
},
{
layerId = m002;
shapes = (
{
closed = 1;
nodes = (
(589,0,l),
(589,568,l),
(527,568,o),
(434,568,o),
(356,568,c),
(356,572,o),
(356,581,o),
(356,589,c),
(267,589,l),
(267,356,l),
(377,356,l),
(377,0,l)
);
},
{
closed = 1;
nodes = (
(233,123,l),
(233,444,l),
(21,444,l),
(21,123,l)
);
},
{
closed = 1;
nodes = (
(356,568,l),
(356,568,l),
(267,568,l)
);
},
{
closed = 1;
nodes = (
(356,479,l),
(356,589,l),
(466,589,l),
(466,801,l),
(21,801,l),
(21,479,l)
);
}
);
width = 627;
}
);
unicode = 82;
},
{
glyphname = S;
lastChange = "2024-02-23 08:03:18 +0000";
layers = (
{
layerId = m01;
shapes = (
{
closed = 1;
nodes = (
(571,138,l),
(571,539,l),
(308,539,l),
(308,401,l),
(448,401,l),
(448,138,l)
);
},
{
closed = 1;
nodes = (
(308,-1,l),
(308,138,l),
(46,138,l),
(46,-1,l)
);
},
{
closed = 1;
nodes = (
(308,539,l),
(308,539,l),
(308,539,l),
(308,678,l),
(308,678,l),
(308,801,l),
(31,801,l),
(31,539,l)
);
},
{
closed = 1;
nodes = (
(571,678,l),
(571,801,l),
(308,801,l),
(308,678,l)
);
}
);
width = 600;
},
{
layerId = m002;
shapes = (
{
closed = 1;
nodes = (
(599,123,l),
(599,567,l),
(277,567,l),
(277,356,l),
(401,356,l),
(401,123,l)
);
},
{
closed = 1;
nodes = (
(366,0,l),
(366,212,l),
(45,212,l),
(46,-1,l)
);
},
{
closed = 1;
nodes = (
(277,479,l),
(277,356,l),
(277,601,l),
(308,678,l),
(308,678,l),
(308,801,l),
(31,801,l),
(31,479,l)
);
},
{
closed = 1;
nodes = (
(599,602,l),
(599,800,l),
(308,801,l),
(277,601,l)
);
}
);
width = 628;
}
);
unicode = 83;
},
{
glyphname = T;
lastChange = "2024-02-23 08:37:42 +0000";
layers = (
{
layerId = m01;
shapes = (
{
closed = 1;
nodes = (
(33,669,l),
(565,669,l),
(565,800,l),
(33,800,l)
);
},
{
closed = 1;
nodes = (
(167,-1,l),
(434,-1,l),
(434,261,l),
(167,261,l)
);
}
);
width = 600;
},
{
layerId = m002;
shapes = (
{
closed = 1;
nodes = (
(33,594,l),
(593,594,l),
(593,800,l),
(33,800,l)
);
},
{
closed = 1;
nodes = (
(151,0,l),
(477,0,l),
(477,321,l),
(151,321,l)
);
}
);
width = 628;
}
);
unicode = 84;
},
{
glyphname = U;
lastChange = "2024-02-23 08:04:44 +0000";
layers = (
{
layerId = m01;
shapes = (
{
closed = 1;
nodes = (
(446,0,l),
(446,800,l),
(569,800,l),
(569,785,o),
(569,15,o),
(569,0,c)
);
},
{
closed = 1;
nodes = (
(31,0,l),
(307,0,l),
(307,262,l),
(31,262,l)
);
},
{
closed = 1;
nodes = (
(168,800,l),
(168,538,l),
(123,538,o),
(76,538,o),
(31,538,c),
(31,800,l)
);
}
);
width = 600;
},
{
layerId = m002;
shapes = (
{
closed = 1;
nodes = (
(400,0,l),
(400,799,l),
(598,799,l),
(598,784,o),
(598,15,o),
(598,0,c)
);
},
{
closed = 1;
nodes = (
(31,0,l),
(365,0,l),
(365,321,l),
(31,321,l)
);
},
{
closed = 1;
nodes = (
(242,799,l),
(242,478,l),
(197,478,o),
(76,478,o),
(31,478,c),
(31,800,l)
);
}
);
width = 629;
}
);
unicode = 85;
},
{
glyphname = V;
lastChange = "2024-02-23 08:06:10 +0000";
layers = (
{
layerId = m01;
shapes = (
{
closed = 1;
nodes = (
(178,398,l),
(178,-2,l),
(440,-2,l),
(440,275,l),
(317,275,l),
(317,398,l)
);
},
{
closed = 1;
nodes = (
(440,536,l),
(578,536,l),
(578,798,l),
(440,798,l)
);
},
{
closed = 1;
nodes = (
(40,660,l),
(178,660,l),
(178,798,l),
(40,798,l)
);
}
);
width = 600;
},
{
layerId = m002;
shapes = (
{
closed = 1;
nodes = (
(163,444,l),
(163,0,l),
(484,0,l),
(484,335,l),
(375,335,l),
(375,444,l)
);
},
{
closed = 1;
nodes = (
(396,478,l),
(607,478,l),
(607,800,l),
(396,800,l)
);
},
{
closed = 1;
nodes = (
(40,589,l),
(251,589,l),
(251,800,l),
(40,800,l)
);
}
);
width = 629;
}
);
unicode = 86;
},
{
glyphname = W;
lastChange = "2024-02-23 08:07:04 +0000";
layers = (
{
layerId = m01;
shapes = (
{
closed = 1;
nodes = (
(170,262,l),
(170,139,l),
(31,139,l),
(31,0,l),
(569,0,l),
(569,139,l),
(430,139,l),
(430,262,l)
);
},
{
closed = 1;
nodes = (
(31,399,l),
(170,399,l),
(170,800,l),
(31,800,l)
);
},
{
closed = 1;
nodes = (
(430,399,l),
(569,399,l),
(569,800,l),
(430,800,l)
);
}
);
width = 600;
},
{
layerId = m002;
shapes = (
{
closed = 1;
nodes = (
(155,323,l),
(155,213,l),
(31,213,l),
(31,0,l),
(600,0,l),
(600,213,l),
(476,213,l),
(476,323,l)
);
},
{
closed = 1;
nodes = (
(31,356,l),
(244,356,l),
(244,802,l),
(31,800,l)
);
},
{
closed = 1;
nodes = (
(387,356,l),
(600,356,l),
(600,802,l),
(387,802,l)
);
}
);
width = 631;
}
);
unicode = 87;
},
{
glyphname = X;
lastChange = "2024-02-23 08:11:45 +0000";
layers = (
{
layerId = m01;
shapes = (
{
closed = 1;
nodes = (
(29,800,l),
(29,662,l),
(167,662,l),
(167,400,l),
(429,400,l),
(429,662,l),
(567,662,l),
(567,800,l),
(429,800,l),
(429,676,l),
(167,676,l),
(167,800,l)
);
},
{
closed = 1;
nodes = (
(29,0,l),
(167,0,l),
(167,277,l),
(29,277,l)
);
},
{
closed = 1;
nodes = (
(429,0,l),
(567,0,l),
(567,138,l),
(429,138,l)
);
}
);
width = 600;
},
{
layerId = m002;
shapes = (
{
closed = 1;
nodes = (
(29,800,l),
(29,588,l),
(152,588,l),
(152,355,l),
(473,355,l),
(473,588,l),
(596,588,l),
(596,800,l),
(385,800,l),
(385,689,l),
(241,689,l),
(241,800,l)
);
},
{
closed = 1;
nodes = (
(29,0,l),
(241,0,l),
(241,335,l),
(29,335,l)
);
},
{
closed = 1;
nodes = (
(385,0,l),
(596,0,l),
(596,211,l),
(385,211,l)
);
}
);
width = 629;
}
);
unicode = 88;
},
{
glyphname = Y;
lastChange = "2024-02-23 08:38:43 +0000";
layers = (
{
layerId = m01;
shapes = (
{
closed = 1;
nodes = (
(40,801,l),
(40,663,l),
(163,663,l),
(163,400,l),
(441,400,l),
(441,663,l),
(564,663,l),
(564,801,l),
(441,801,l),
(441,678,l),
(163,678,l),
(163,801,l)
);
},
{
closed = 1;
nodes = (
(163,0,l),
(441,0,l),
(441,138,l),
(163,138,l)
);
}
);
width = 600;
},
{
layerId = m002;
shapes = (
{
closed = 1;
nodes = (
(40,801,l),
(40,589,l),
(149,589,l),
(149,355,l),
(485,355,l),
(485,589,l),
(594,589,l),
(594,800,l),
(396,800,l),
(396,691,l),
(238,691,l),
(238,800,l)
);
},
{
closed = 1;
nodes = (
(149,0,l),
(485,0,l),
(485,211,l),
(149,211,l)
);
}
);
width = 630;
}
);
unicode = 89;
},
{
glyphname = Z;
lastChange = "2024-02-23 08:13:05 +0000";
layers = (
{
layerId = m01;
shapes = (
{
closed = 1;
nodes = (
(177,662,l),
(37,662,l),
(37,800,l),
(438,800,l),
(438,539,l),
(345,539,o),
(268,539,o),
(177,539,c)
);
},
{
closed = 1;
nodes = (
(177,402,l),
(177,138,l),
(300,138,l),
(300,0,l),
(37,0,l),
(37,402,l)
);
},
{
closed = 1;
nodes = (
(438,0,l),
(576,0,l),
(576,138,l),
(438,138,l)
);
}
);
width = 600;
},
{
layerId = m002;
shapes = (
{
closed = 1;
nodes = (
(162,589,l),
(37,589,l),
(37,800,l),
(483,801,l),
(483,480,l),
(390,480,o),
(253,480,o),
(162,480,c)
);
},
{
closed = 1;
nodes = (
(251,447,l),
(251,212,l),
(360,212,l),
(360,0,l),
(37,0,l),
(37,447,l)
);
},
{
closed = 1;
nodes = (
(394,0,l),
(606,0,l),
(606,212,l),
(394,212,l)
);
}
);
width = 630;
}
);
unicode = 90;
},
{
glyphname = zero;
lastChange = "2024-02-23 08:14:17 +0000";
layers = (
{
layerId = m01;
shapes = (
{
closed = 1;
nodes = (
(157,800,l),
(157,671,l),
(26,671,l),
(26,402,l),
(160,402,l),
(160,665,l),
(426,665,l),
(426,403,l),
(558,403,l),
(558,800,l)
);
},
{
closed = 1;
nodes = (
(26,0,l),
(293,0,l),
(293,262,l),
(26,262,l)
);
},
{
closed = 1;
nodes = (
(432,0,l),
(558,0,l),
(558,126,l),
(432,126,l)
);
}
);
width = 591;
},
{
layerId = m002;
shapes = (
{
closed = 1;
nodes = (
(142,800,l),
(142,685,l),
(26,685,l),
(26,357,l),
(234,357,l),
(234,591,l),
(381,591,l),
(381,358,l),
(588,358,l),
(588,800,l)
);
},
{
closed = 1;
nodes = (
(26,0,l),
(352,0,l),
(352,322,l),
(26,322,l)
);
},
{
closed = 1;
nodes = (
(387,0,l),
(587,0,l),
(587,201,l),
(387,201,l)
);
}
);
width = 621;
}
);
unicode = 48;
},
{
glyphname = one;
lastChange = "2024-02-23 08:14:40 +0000";
layers = (
{
layerId = m01;
shapes = (
{
closed = 1;
nodes = (
(27,801,l),
(27,531,l),
(290,531,l),
(290,132,l),
(26,132,l),
(26,0,l),
(559,0,l),
(559,135,l),
(428,135,l),
(428,533,l),
(294,533,l),
(294,801,l)
);
}
);
width = 592;
},
{
layerId = m002;
shapes = (
{
closed = 1;
nodes = (
(27,801,l),
(27,472,l),
(260,472,l),
(260,206,l),
(26,206,l),
(26,0,l),
(588,0,l),
(588,209,l),
(472,209,l),
(472,562,l),
(353,562,l),
(353,801,l)
);
}
);
width = 621;
}
);
unicode = 49;
},
{
glyphname = two;
lastChange = "2024-02-23 08:39:46 +0000";
layers = (
{
layerId = m01;
shapes = (
{
closed = 1;
nodes = (
(161,396,l),
(161,264,l),
(26,264,l),
(26,1,l),
(292,1,l),
(292,396,l)
);
},
{
closed = 1;
nodes = (
(26,800,l),
(26,666,l),
(295,666,l),
(295,535,l),
(425,535,l),
(425,800,l)
);
},
{
closed = 1;
nodes = (
(426,0,l),
(558,0,l),
(558,132,l),
(426,132,l)
);
}
);
width = 591;
},
{
layerId = m002;
shapes = (
{
closed = 1;
nodes = (
(146,442,l),
(146,324,l),
(26,324,l),
(26,1,l),
(351,0,l),
(351,442,l)
);
},
{
closed = 1;
nodes = (
(26,800,l),
(26,593,l),
(265,593,l),
(265,476,l),
(470,476,l),
(470,801,l)
);
},
{
closed = 1;
nodes = (
(382,0,l),
(588,0,l),
(588,207,l),
(382,207,l)
);
}
);
width = 621;
}
);
unicode = 50;
},
{
glyphname = three;
lastChange = "2024-02-23 08:16:28 +0000";
layers = (
{
layerId = m01;
shapes = (
{
closed = 1;
nodes = (
(422,400,l),
(422,137,l),
(158,137,l),
(158,264,l),
(27,264,l),
(27,131,l),
(157,131,l),
(157,0,l),
(556,0,l),
(556,400,l)
);
},
{
closed = 1;
nodes = (
(285,799,l),
(285,532,l),
(27,532,l),
(27,402,l),
(292,402,l),
(292,531,l),
(555,531,l),
(555,799,l)
);
},
{
closed = 1;
nodes = (
(26,669,l),
(157,669,l),
(157,800,l),
(26,800,l)
);
}
);
width = 589;
},
{
layerId = m002;
shapes = (
{
closed = 1;
nodes = (
(380,446,l),
(380,211,l),
(233,211,l),
(233,325,l),
(27,325,l),
(27,117,l),
(143,117,l),
(143,0,l),
(589,0,l),
(589,446,l)
);
},
{
closed = 1;
nodes = (
(258,802,l),
(258,564,l),
(27,564,l),
(27,359,l),
(353,359,l),
(353,474,l),
(588,474,l),
(588,802,l)
);
},
{
closed = 1;
nodes = (
(26,597,l),
(233,597,l),
(233,803,l),
(26,800,l)
);
}
);
width = 622;
}
);
unicode = 51;
},
{
glyphname = four;
lastChange = "2024-02-23 08:20:11 +0000";
layers = (
{
layerId = m01;
shapes = (
{
closed = 1;
nodes = (
(426,531,l),
(426,403,l),
(298,403,l),
(298,131,l),
(429,131,l),
(429,0,l),
(562,0,l),
(562,531,l)
);
},
{
closed = 1;
nodes = (
(297,671,l),
(563,671,l),
(563,803,l),
(297,803,l)
);
},
{
closed = 1;
nodes = (
(26,406,l),
(159,406,l),
(159,665,l),
(26,665,l)
);
}
);
width = 596;
},
{
layerId = m002;
shapes = (
{
closed = 1;
nodes = (
(380,559,l),
(380,446,l),
(267,446,l),
(267,116,l),
(383,116,l),
(383,0,l),
(590,0,l),
(590,559,l)
);
},
{
closed = 1;
nodes = (
(266,595,l),
(591,595,l),
(591,800,l),
(266,800,l)
);
},
{
closed = 1;
nodes = (
(26,360,l),
(232,360,l),
(232,678,l),
(26,678,l)
);
}
);
width = 624;
}
);
unicode = 52;
},
{
glyphname = five;
lastChange = "2024-02-23 08:21:55 +0000";
layers = (
{
layerId = m01;
shapes = (
{
closed = 1;
nodes = (
(162,801,l),
(162,536,l),
(431,536,l),
(431,667,l),
(559,667,l),
(559,801,l)
);
},
{
closed = 1;
nodes = (
(295,399,l),
(295,265,l),
(426,265,l),
(426,0,l),
(559,0,l),
(559,399,l)
);
},
{
closed = 1;
nodes = (
(26,0,l),
(293,0,l),
(293,130,l),
(26,130,l)
);
}
);
width = 592;
},
{
layerId = m002;
shapes = (
{
closed = 1;
nodes = (
(147,801,l),
(147,477,l),
(475,477,l),
(475,593,l),
(589,593,l),
(589,801,l)
);
},
{
closed = 1;
nodes = (
(265,444,l),
(265,236,l),
(382,236,l),
(382,0,l),
(589,0,l),
(589,444,l)
);
},
{
closed = 1;
nodes = (
(26,0,l),
(352,0,l),
(352,205,l),
(26,205,l)
);
}
);
width = 622;
}
);
unicode = 53;
},
{
glyphname = six;
lastChange = "2024-02-23 08:22:49 +0000";
layers = (
{
layerId = m01;
shapes = (
{
closed = 1;
nodes = (
(26,536,l),
(26,1,l),
(293,1,l),
(293,267,l),
(159,267,l),
(159,536,l)
);
},
{
closed = 1;
nodes = (
(428,0,l),
(561,0,l),
(561,401,l),
(428,401,l)
);
},
{
closed = 1;
nodes = (
(26,672,l),
(292,672,l),
(292,801,l),
(26,801,l)
);
}
);
width = 594;
},
{
layerId = m002;
shapes = (
{
closed = 1;
nodes = (
(26,566,l),
(26,1,l),
(352,1,l),
(352,326,l),
(233,326,l),
(233,566,l)
);
},
{
closed = 1;
nodes = (
(383,0,l),
(591,0,l),
(591,446,l),
(383,446,l)
);
},
{
closed = 1;
nodes = (
(26,598,l),
(351,598,l),
(351,802,l),
(26,801,l)
);
}
);
width = 624;
}
);
unicode = 54;
},
{
glyphname = seven;
lastChange = "2024-02-23 08:23:44 +0000";
layers = (
{
layerId = m01;
shapes = (
{
closed = 1;
nodes = (
(26,801,l),
(26,537,l),
(296,537,l),
(296,669,l),
(428,669,l),
(428,801,l)
);
},
{
closed = 1;
nodes = (
(429,0,l),
(558,0,l),
(558,534,l),
(429,534,l)
);
}
);
width = 591;
},
{
layerId = m002;
shapes = (
{
closed = 1;
nodes = (
(26,801,l),
(26,478,l),
(354,478,l),
(354,595,l),
(472,595,l),
(472,800,l)
);
},
{
closed = 1;
nodes = (
(384,0,l),
(588,0,l),
(588,564,l),
(384,564,l)
);
}
);
width = 621;
}
);
unicode = 55;
},
{
glyphname = eight;
lastChange = "2024-02-23 08:25:31 +0000";
layers = (
{
layerId = m01;
shapes = (
{
closed = 1;
nodes = (
(26,801,l),
(26,401,l),
(295,401,l),
(295,664,l),
(425,664,l),
(425,534,l),
(558,534,l),
(558,666,l),
(428,666,l),
(428,801,l)
);
},
{
closed = 1;
nodes = (
(427,399,l),
(427,130,l),
(162,130,l),
(162,0,l),
(558,0,l),
(558,399,l)
);
},
{
closed = 1;
nodes = (
(26,134,l),
(156,134,l),
(156,265,l),
(26,265,l)
);
}
);
width = 591;
},
{
layerId = m002;
shapes = (
{
closed = 1;
nodes = (
(26,801,l),
(26,356,l),
(353,356,l),
(353,590,l),
(380,590,l),
(382,474,l),
(587,474,l),
(587,680,l),
(471,680,l),
(471,800,l)
);
},
{
closed = 1;
nodes = (
(382,443,l),
(382,204,l),
(146,204,l),
(146,0,l),
(587,0,l),
(587,443,l)
);
},
{
closed = 1;
nodes = (
(26,119,l),
(230,119,l),
(230,324,l),
(26,324,l)
);
}
);
width = 620;
}
);
unicode = 56;
},
{
glyphname = nine;
lastChange = "2024-02-23 08:26:46 +0000";
layers = (
{
layerId = m01;
shapes = (
{
closed = 1;
nodes = (
(424,267,l),
(424,135,l),
(161,135,l),
(161,0,l),
(559,0,l),
(559,267,l)
);
},
{
closed = 1;
nodes = (
(26,541,l),
(294,541,l),
(294,802,l),
(26,802,l)
);
},
{
closed = 1;
nodes = (
(429,404,l),
(559,404,l),
(559,801,l),
(429,801,l)
);
},
{
closed = 1;
nodes = (
(26,269,l),
(295,269,l),
(295,399,l),
(26,399,l)
);
}
);
width = 592;
},
{
layerId = m002;
shapes = (
{
closed = 1;
nodes = (
(380,326,l),
(380,209,l),
(146,209,l),
(146,0,l),
(588,0,l),
(588,326,l)
);
},
{
closed = 1;
nodes = (
(26,481,l),
(353,481,l),
(353,802,l),
(26,802,l)
);
},
{
closed = 1;
nodes = (
(384,359,l),
(588,359,l),
(588,801,l),
(384,801,l)
);
},
{
closed = 1;
nodes = (
(26,239,l),
(354,239,l),
(354,444,l),
(26,444,l)
);
}
);
width = 621;
}
);
unicode = 57;
},
